:SAMPLES-PER-SECOND 30
:FULLY-SPECIFIED
:DEGREES
319
root  -31.2144 25.2165 -0.396123 1.37115 80.586 -5.03056
RightUpLeg  -70.9532 -3.62679 -1.24753
RightLeg  100.351 1.49527 -5.31267
RightFoot  -32.228 -0.0312283 1.02215
RightToes  -3.31784e-009 0 -3.6325e-017
Spine  72.8865 1.71219 2.48122
Spine1  0.611416 4.96699 -3.13307
HEad  -55.3321 -7.98035 -4.42248
LeftShoulder1  1.31211 -0.449131 -27.0639
LeftArm  -5.6271 -7.70567 -43.3507
LeftForeArm  25.6604 -55.5659 -14.2675
LeftHand  -0.107325 3.8476 6.93809
RightShoulder  0.188864 -2.88053 25.4354
RightArm  8.88884 4.33288 44.532
RightForeArm  15.2219 48.3851 11.5151
RightHand  -0.735592 9.0724 -6.26987
LeftUpLeg  -71.2721 12.8571 4.1716
LeftLeg  100.092 -0.339398 0.256936
LeftFoot  -30.6143 0.55179 2.16545
LeftToes  1.28511e-009 -3.60458e-011 6.16399e-011
320
root  -30.766 25.3274 -0.463653 4.52805 81.0109 -0.970795
RightUpLeg  -68.6835 -3.5082 -2.68185
RightLeg  100.628 1.61873 -5.72743
RightFoot  -33.7425 0.0750458 1.54004
RightToes  -3.31784e-009 0 -3.6325e-017
Spine  75.2016 1.02327 2.39095
Spine1  0.14117 4.25548 -3.34523
HEad  -57.0873 -7.78366 -4.09203
LeftShoulder1  1.36353 -0.584089 -27.2321
LeftArm  -2.32018 -9.9315 -44.6053
LeftForeArm  21.3045 -51.2852 -12.3618
LeftHand  -0.125058 3.65713 8.09539
RightShoulder  0.252864 -2.68097 25.6083
RightArm  11.4509 7.14664 45.4052
RightForeArm  13.5198 44.774 10.1922
RightHand  -0.673841 9.54771 -5.6225
LeftUpLeg  -68.8991 11.2227 3.86376
LeftLeg  100.125 -0.525726 1.12375
LeftFoot  -32.0832 0.386147 1.04778
LeftToes  1.28511e-009 -3.60458e-011 6.16399e-011
321
root  -30.1943 25.5896 -0.506192 7.83791 81.5842 2.46101
RightUpLeg  -66.4926 -3.43226 -3.86183
RightLeg  100.264 1.68068 -6.19275
RightFoot  -35.3547 0.272581 2.4118
RightToes  -3.31784e-009 0 -3.6325e-017
Spine  76.2016 -0.0538944 2.64446
Spine1  -0.837006 3.57893 -4.27381
HEad  -58.5587 -7.9176 -3.76035
LeftShoulder1  1.42597 -0.720406 -27.6456
LeftArm  0.882069 -12.7936 -45.7287
LeftForeArm  17.4652 -45.6337 -10.2446
LeftHand  -0.121143 4.6359 5.83303
RightShoulder  0.166742 -2.96782 26.5442
RightArm  13.8971 11.8746 46.3114
RightForeArm  11.531 39.7281 8.59428
RightHand  -0.602534 10.422 -4.81185
LeftUpLeg  -66.8386 9.55234 3.43682
LeftLeg  99.5957 -0.713195 2.09186
LeftFoot  -33.3657 0.211731 0.0577823
LeftToes  1.28511e-009 -3.60458e-011 6.16399e-011
322
root  -29.4843 26.029 -0.529033 10.8414 82.1601 4.83807
RightUpLeg  -64.2541 -3.14314 -4.75609
RightLeg  99.1139 1.67395 -6.83499
RightFoot  -36.881 0.562049 3.59654
RightToes  -3.31784e-009 0 -3.6325e-017
Spine  75.3436 -0.847461 3.0149
Spine1  -1.6394 2.88603 -4.32524
HEad  -60.3796 -7.81695 -4.12087
LeftShoulder1  1.51896 -0.941734 -28.0717
LeftArm  3.25843 -15.7437 -47.1661
LeftForeArm  11.7613 -39.1139 -8.36225
LeftHand  -0.0557131 6.98973 -0.771203
RightShoulder  0.172573 -2.95589 26.9558
RightArm  14.9551 18.0054 47.3993
RightForeArm  8.76951 33.9922 7.07696
RightHand  -0.728423 11.2808 -5.50825
LeftUpLeg  -64.8496 7.91704 3.1628
LeftLeg  98.3541 -0.815547 2.92636
LeftFoot  -34.6816 -0.0477327 -1.24868
LeftToes  1.28511e-009 -3.60458e-011 6.16399e-011
323
root  -28.6502 26.5671 -0.515709 12.0986 83.0361 4.96713
RightUpLeg  -61.9475 -3.34751 -5.00518
RightLeg  97.4167 1.56431 -7.47197
RightFoot  -38.1881 0.814752 4.50483
RightToes  -3.31784e-009 0 -3.6325e-017
Spine  72.794 -1.75608 3.56717
Spine1  -2.46449 2.06748 -4.27993
HEad  -62.1223 -7.51827 -4.72022
LeftShoulder1  1.61359 -1.21468 -28.1158
LeftArm  2.65732 -17.7315 -47.4254
LeftForeArm  5.17292 -35.2059 -7.58911
LeftHand  -0.0410076 4.59325 5.41302
RightShoulder  0.161493 -2.99511 27.3621
RightArm  12.0993 23.9763 48.016
RightForeArm  7.95484 31.3994 6.43057
RightHand  -1.09838 12.8154 -7.22809
LeftUpLeg  -63.083 5.92474 3.22427
LeftLeg  96.7897 -0.949101 4.34141
LeftFoot  -35.6017 -0.176774 -1.83
LeftToes  1.28511e-009 -3.60458e-011 6.16399e-011
324
root  -27.6768 27.0967 -0.450937 13.2309 84.002 4.35014
RightUpLeg  -59.9495 -4.09185 -4.88227
RightLeg  95.5309 1.33969 -7.69691
RightFoot  -39.6924 1.16779 5.7001
RightToes  -3.31784e-009 0 -3.6325e-017
Spine  68.3073 -2.20159 4.14622
Spine1  -3.30351 1.59385 -4.09838
HEad  -63.6682 -7.5779 -4.73338
LeftShoulder1  1.74353 -1.65952 -27.6666
LeftArm  -2.22639 -17.3446 -46.5657
LeftForeArm  10.4003 -38.5542 -8.3011
LeftHand  -0.00612445 5.71619 6.77157
RightShoulder  0.0263853 -3.39622 28.0359
RightArm  3.73555 27.7766 46.1354
RightForeArm  8.21552 36.9694 7.92777
RightHand  -2.06562 17.3055 -11.0126
LeftUpLeg  -61.7904 4.00091 3.33291
LeftLeg  95.2107 -1.06133 6.17723
LeftFoot  -36.5321 -0.20362 -1.89577
LeftToes  1.28511e-009 -3.60458e-011 6.16399e-011
325
root  -26.566 27.6918 -0.365123 19.1308 85.396 8.5108
RightUpLeg  -57.5165 -6.15572 -4.92633
RightLeg  93.4269 0.959747 -6.81304
RightFoot  -41.1954 1.43355 6.43573
RightToes  -3.31784e-009 0 -3.6325e-017
Spine  62.123 -2.50451 4.50157
Spine1  -3.25938 0.85491 -3.39944
HEad  -65.3973 -7.1103 -5.01194
LeftShoulder1  1.69211 -1.51825 -27.5902
LeftArm  -10.051 -15.9816 -43.4099
LeftForeArm  15.7344 -49.9978 -12.302
LeftHand  -0.0306312 5.25711 5.2926
RightShoulder  -0.0612628 -3.64974 29.3126
RightArm  -4.39853 31.5853 40.6662
RightForeArm  8.95388 48.7943 12.3486
RightHand  -2.14832 17.3588 -11.3356
LeftUpLeg  -60.1566 1.96478 3.1511
LeftLeg  93.2205 -0.944585 7.32604
LeftFoot  -37.2514 -0.441104 -2.90122
LeftToes  1.28511e-009 -3.60458e-011 6.16399e-011
326
root  -25.3588 28.4582 -0.254731 36.5001 87.0685 24.341
RightUpLeg  -54.2448 -9.22595 -5.02845
RightLeg  90.3914 0.542199 -5.94278
RightFoot  -42.3988 1.61705 6.86756
RightToes  -3.31784e-009 0 -3.6325e-017
Spine  54.4097 -2.61252 4.65901
Spine1  -2.03091 -0.015809 -1.91779
HEad  -66.6416 -6.56421 -5.26423
LeftShoulder1  1.50105 -1.11273 -26.3402
LeftArm  -18.5543 -16.739 -39.5026
LeftForeArm  24.1533 -64.0038 -21.6368
LeftHand  -0.0706529 4.42965 6.48613
RightShoulder  -0.0226387 -3.5453 27.0412
RightArm  -14.8822 33.3569 35.6615
RightForeArm  18.737 64.9073 23.6322
RightHand  -2.57529 16.836 -13.7781
LeftUpLeg  -57.9133 -0.241105 2.76403
LeftLeg  90.4804 -0.620675 7.94458
LeftFoot  -37.2549 -0.480075 -3.06781
LeftToes  1.28511e-009 -3.60458e-011 6.16399e-011
327
root  -23.9319 29.4697 -0.00137401 77.7338 86.1089 64.5514
RightUpLeg  -49.8488 -11.849 -7.00826
RightLeg  86.404 0.15693 -5.09572
RightFoot  -43.1285 1.65686 6.85496
RightToes  -3.31784e-009 0 -3.6325e-017
Spine  46.4645 -1.09002 1.6761
Spine1  -0.905628 -0.706654 0.630755
HEad  -66.379 -5.97854 -6.02095
LeftShoulder1  1.31011 -0.953647 -23.1747
LeftArm  -28.9294 -19.2002 -34.7098
LeftForeArm  46.0017 -75.9261 -45.3455
LeftHand  -0.0389197 5.09172 7.09484
RightShoulder  0.049965 -3.30665 23.7755
RightArm  -26.8988 35.0085 28.2904
RightForeArm  47.8174 77.3666 55.1536
RightHand  -2.60445 17.4666 -13.5563
LeftUpLeg  -53.7516 -0.754568 0.428005
LeftLeg  86.0018 -0.00674843 7.44344
LeftFoot  -36.7201 -0.459821 -3.03082
LeftToes  1.28511e-009 -3.60458e-011 6.16399e-011
328
root  -22.1542 30.882 0.187177 104.9 83.2572 91.6621
RightUpLeg  -42.7081 -15.7012 -10.6035
RightLeg  80.522 -0.139286 -3.11307
RightFoot  -42.772 1.79118 7.40067
RightToes  -3.31784e-009 0 -3.6325e-017
Spine  39.2422 -0.393868 -2.13155
Spine1  -1.0972 -1.96571 3.0094
HEad  -64.7287 -4.63723 -6.95202
LeftShoulder1  1.19833 -1.27797 -18.4709
LeftArm  -41.5762 -21.2215 -28.5509
LeftForeArm  95.0008 -79.7025 -98.7772
LeftHand  -0.00802824 5.63095 7.07069
RightShoulder  0.177706 -2.7822 19.1225
RightArm  -38.6274 33.2371 20.1937
RightForeArm  106.851 78.2272 116.731
RightHand  -2.9305 19.3744 -14.0542
LeftUpLeg  -46.8531 -1.27417 -3.11164
LeftLeg  78.8809 0.765673 6.45949
LeftFoot  -35.301 -0.372262 -2.73767
LeftToes  1.28511e-009 -3.60458e-011 6.16399e-011
329
root  -19.9882 32.6869 0.328246 110.397 79.8459 96.2981
RightUpLeg  -35.2397 -19.125 -14.6397
RightLeg  72.2807 0.0707554 -0.751174
RightFoot  -39.6223 1.95732 8.82114
RightToes  -3.31784e-009 0 -3.6325e-017
Spine  31.102 -0.0512039 -6.55601
Spine1  -1.64834 -2.74859 4.34398
HEad  -61.5392 -3.24063 -7.68395
LeftShoulder1  0.874715 -0.911467 -12.6418
LeftArm  -53.0208 -20.9356 -22.32
LeftForeArm  131.261 -74.9671 -136.948
LeftHand  -0.0178093 5.46178 7.66381
RightShoulder  0.219023 -2.43976 13.8296
RightArm  -46.2886 26.8336 14.0989
RightForeArm  136.394 71.0433 147.405
RightHand  -2.92901 19.304 -14.1062
LeftUpLeg  -39.1199 -0.483907 -6.64086
LeftLeg  69.0542 1.23069 4.4009
LeftFoot  -31.7698 -0.275362 -2.58792
LeftToes  1.28511e-009 -3.60458e-011 6.16399e-011
330
root  -17.329 35.0088 0.293442 112.461 76.8433 96.3307
RightUpLeg  -27.1044 -23.2912 -18.9385
RightLeg  60.3903 2.1435 3.38801
RightFoot  -32.24 1.98785 11.8574
RightToes  -3.31784e-009 0 -3.6325e-017
Spine  20.616 -0.537288 -10.4941
Spine1  -0.964352 -3.29368 5.5287
HEad  -57.4731 -2.06894 -9.076
LeftShoulder1  0.471432 0.118131 -6.17788
LeftArm  -62.019 -14.3067 -18.9793
LeftForeArm  148.264 -67.2138 -154.329
LeftHand  -0.0334606 5.21751 8.39819
RightShoulder  0.132724 -2.70268 9.42131
RightArm  -48.7261 18.3122 9.07001
RightForeArm  143.835 64.0155 157.059
RightHand  -2.54011 15.9282 -14.1233
LeftUpLeg  -30.6885 0.935614 -9.75679
LeftLeg  55.2247 0.373454 1.29942
LeftFoot  -24.0517 -0.427575 -4.81728
LeftToes  1.28511e-009 -3.60458e-011 6.16399e-011
331
root  -14.0528 37.8772 0.197088 112.352 74.4108 93.1313
RightUpLeg  -18.0235 -29.1106 -23.2906
RightLeg  43.9667 7.69673 7.42856
RightFoot  -17.1257 0.579578 18.1577
RightToes  -3.31784e-009 0 -3.6325e-017
Spine  7.52415 -1.58582 -13.3445
Spine1  0.455274 -3.06483 5.67074
HEad  -49.6676 -0.882725 -10.151
LeftShoulder1  0.211782 1.61733 -3.26149
LeftArm  -67.4542 -7.08855 -14.6401
LeftForeArm  149.195 -61.6906 -159.788
LeftHand  0.0306649 6.26119 7.2749
RightShoulder  0.0573003 -3.1007 7.52419
RightArm  -44.9459 7.54823 5.97131
RightForeArm  146.876 56.6855 162.981
RightHand  -3.10044 19.5417 -14.7089
LeftUpLeg  -20.3504 2.44745 -11.8902
LeftLeg  34.5228 -2.45315 -1.43179
LeftFoot  -8.05768 0.645162 -10.3478
LeftToes  1.28511e-009 -3.60458e-011 6.16399e-011
